<?xml version="1.0" encoding="utf-8"?>
<!-- Generator: Adobe Illustrator 25.2.1, SVG Export Plug-In . SVG Version: 6.00 Build 0)  -->
<svg version="1.1" id="Layer_1" xmlns="http://www.w3.org/2000/svg" xmlns:xlink="http://www.w3.org/1999/xlink" x="0px" y="0px"
	 viewBox="0 0 183.7 200" style="enable-background:new 0 0 183.7 200;" xml:space="preserve">
<style type="text/css">
	.st0{fill:#FFFFFF;}
	.st1{fill:none;stroke:#040738;stroke-width:3.78;stroke-linecap:round;stroke-linejoin:round;}
	.st2{fill:none;stroke:#040738;stroke-width:3.78;stroke-linejoin:round;}
	.st3{fill:none;stroke:#1DBFCC;stroke-width:3.22;stroke-miterlimit:10;}
	.st4{fill:none;stroke:#040738;stroke-width:3.13;stroke-linecap:round;stroke-linejoin:round;}
	.st5{fill:none;stroke:#219DA7;stroke-width:3.78;stroke-linejoin:round;}
	.st6{fill:none;stroke:#040738;stroke-width:2.59;stroke-linecap:round;stroke-linejoin:round;}
	.st7{fill:none;stroke:#040738;stroke-width:3.22;stroke-miterlimit:10;}
	.st8{fill:none;stroke:#040738;stroke-width:2.83;stroke-miterlimit:10;}
	.st9{fill:#1DBFCC;}
	.st10{fill:#0F96AC;}
	.st11{fill:#1DBFCC;stroke:#FFFFFF;stroke-miterlimit:10;}
	.st12{fill:#1DBFCC;stroke:#FFFFFF;stroke-width:1.7;stroke-miterlimit:10;}
</style>
<path class="st0" d="M169.9,55.8L90.7,8.9L11.5,52.3v90.3l79.2,46.9l62.9-34.5c10-5.5,14.4-15.8,14.4-27.3L169.9,55.8z"/>
<line class="st1" x1="169.6" y1="59.8" x2="93.8" y2="102.1"/>
<line class="st2" x1="90.2" y1="22.9" x2="90.2" y2="103.2"/>
<line class="st1" x1="7.3" y1="149.1" x2="84.4" y2="109.2"/>
<line class="st1" x1="90" y1="103.6" x2="158.8" y2="149.1"/>
<line class="st3" x1="168.1" y1="63.8" x2="132.5" y2="121.9"/>
<line class="st4" x1="90.3" y1="109.2" x2="89.8" y2="177.9"/>
<line class="st2" x1="82.8" y1="19.8" x2="50.8" y2="72.6"/>
<line class="st5" x1="43.2" y1="85.4" x2="13.7" y2="135.2"/>
<line class="st1" x1="89.6" y1="104.9" x2="47.5" y2="78.3"/>
<line class="st6" x1="44.2" y1="76.3" x2="11.9" y2="55.1"/>
<line class="st7" x1="122" y1="137.3" x2="93.8" y2="180"/>
<path class="st8" d="M163,59.5c-1.2-2.6-1.3-5.5-0.4-8.2l-61.3-36.4c-1.5,5.8-7.4,9.4-13.2,7.9c-4-1-7.1-4.2-8-8.2L19.4,47.9
	c3.9,4.6,3.3,11.5-1.3,15.3c-1.8,1.5-4.1,2.4-6.4,2.5v67.9c6,0.3,10.6,5.5,10.3,11.5c-0.1,1-0.3,2-0.6,3l59.9,35.5
	c2.8-5.3,9.4-7.4,14.7-4.5c2.1,1.1,3.7,2.8,4.7,4.9l55-28.9c0.8-5.1,2.4-7.3,3.1-8.2c1-1.1,3.3-2.9,8.2-3.9l3-77.6
	C166.9,64.6,164.4,62.4,163,59.5z"/>
<circle class="st9" cx="90.6" cy="12.5" r="10.9"/>
<circle class="st9" cx="10.9" cy="55.1" r="10.9"/>
<circle class="st9" cx="173" cy="54.2" r="10.9"/>
<path class="st10" d="M100.1,17.7c2.9-5.2,1-11.9-4.2-14.8c-4.7-2.6-10.7-1.4-14,3L100.1,17.7z"/>
<path class="st10" d="M20.5,60.3c2.7-5,1.2-11.3-3.6-14.4C12.1,42.9,5.8,44,2.3,48.5L20.5,60.3z"/>
<path class="st10" d="M182.5,59.3c2.9-5.3,1-11.9-4.3-14.8c-4.7-2.6-10.7-1.4-13.9,3L182.5,59.3z"/>
<circle class="st9" cx="168.1" cy="154.7" r="10.9"/>
<path class="st10" d="M177.1,160.8c3.5-4.9,2.5-11.7-2.4-15.2c-4.6-3.3-10.9-2.6-14.6,1.7L177.1,160.8z"/>
<circle class="st11" cx="90.9" cy="104.9" r="10.9"/>
<path class="st10" d="M100.1,109.6c2.8-5,0.9-11.3-4.1-14.1c-4.5-2.5-10.1-1.3-13.2,2.8L100.1,109.6z"/>
<circle class="st12" cx="127.6" cy="129.2" r="6.3"/>
<path class="st10" d="M132.4,131.6c1.4-2.6,0.3-5.9-2.3-7.3c-2.3-1.2-5.1-0.6-6.7,1.4L132.4,131.6z"/>
<circle class="st9" cx="90.9" cy="188.8" r="10.9"/>
<path class="st10" d="M99.9,194.9c3.5-4.9,2.5-11.7-2.4-15.2c-4.6-3.3-10.9-2.6-14.6,1.7L99.9,194.9z"/>
<circle class="st12" cx="46.8" cy="77.5" r="6.3"/>
<path class="st10" d="M51.7,79.9c1.4-2.6,0.5-5.9-2.2-7.3c-2.3-1.3-5.2-0.7-6.8,1.4L51.7,79.9z"/>
<circle class="st9" cx="10.9" cy="143.8" r="10.9"/>
<path class="st10" d="M20.5,149c2.7-5,1.2-11.3-3.6-14.4c-4.8-3.1-11.2-1.9-14.6,2.6L20.5,149z"/>
</svg>
