<svg id="Layer_1" data-name="Layer 1" xmlns="http://www.w3.org/2000/svg" viewBox="0 0 183.73 199.98"><defs><style>.cls-1{fill:#081b21;}.cls-2,.cls-3,.cls-4,.cls-5,.cls-6,.cls-7,.cls-8{fill:#fff;}.cls-12,.cls-13,.cls-2,.cls-3,.cls-5,.cls-7,.cls-8,.cls-9{stroke:#fff;}.cls-2,.cls-5,.cls-7{stroke-linecap:round;}.cls-2,.cls-3,.cls-5,.cls-6,.cls-7{stroke-linejoin:round;}.cls-2,.cls-3,.cls-6{stroke-width:3.78px;}.cls-4{stroke:#1dbfcc;}.cls-12,.cls-13,.cls-4,.cls-8,.cls-9{stroke-miterlimit:10;}.cls-4,.cls-8{stroke-width:3.22px;}.cls-5{stroke-width:3.13px;}.cls-6{stroke:#219da7;}.cls-7{stroke-width:2.59px;}.cls-9{fill:none;stroke-width:2.83px;}.cls-10,.cls-12,.cls-13{fill:#1dbfcc;}.cls-11{fill:#0f96ac;}.cls-13{stroke-width:1.7px;}</style></defs><path class="cls-1" d="M169.91,55.84,90.73,8.93,11.54,52.32v90.29l79.19,46.91,62.89-34.47c10-5.5,14.45-15.81,14.45-27.26Z"/><line class="cls-2" x1="169.61" y1="59.82" x2="93.75" y2="102.07"/><line class="cls-3" x1="90.15" y1="22.9" x2="90.15" y2="103.23"/><line class="cls-2" x1="7.29" y1="149.14" x2="84.38" y2="109.18"/><line class="cls-2" x1="89.98" y1="103.58" x2="158.82" y2="149.12"/><line class="cls-4" x1="168.07" y1="63.81" x2="132.52" y2="121.91"/><line class="cls-5" x1="90.33" y1="109.18" x2="89.84" y2="177.87"/><line class="cls-3" x1="82.83" y1="19.82" x2="50.75" y2="72.57"/><line class="cls-6" x1="43.18" y1="85.39" x2="13.67" y2="135.2"/><line class="cls-2" x1="89.64" y1="104.88" x2="47.48" y2="78.31"/><line class="cls-7" x1="44.17" y1="76.28" x2="11.86" y2="55.1"/><line class="cls-8" x1="122.03" y1="137.29" x2="93.75" y2="180.01"/><path class="cls-9" d="M163,59.49a11,11,0,0,1-.37-8.21L101.29,14.92a10.9,10.9,0,0,1-21.21-.25L19.41,47.91A10.89,10.89,0,0,1,11.69,65.8v67.93a10.88,10.88,0,0,1,9.68,14.43l59.86,35.46a10.9,10.9,0,0,1,19.45.34l55-28.9c.83-5.11,2.37-7.34,3.12-8.16,1-1.06,3.26-2.88,8.24-3.89l3-77.58A10.89,10.89,0,0,1,163,59.49Z"/><circle class="cls-10" cx="90.57" cy="12.46" r="10.91"/><circle class="cls-10" cx="10.91" cy="55.1" r="10.91"/><circle class="cls-10" cx="173" cy="54.16" r="10.91"/><path class="cls-11" d="M100.1,17.74A10.87,10.87,0,0,0,81.92,5.91Z"/><path class="cls-11" d="M20.48,60.34a11,11,0,0,0-3.56-14.41A11,11,0,0,0,2.3,48.51Z"/><path class="cls-11" d="M182.54,59.33a10.87,10.87,0,0,0-18.18-11.82Z"/><circle class="cls-10" cx="168.06" cy="154.73" r="10.91"/><path class="cls-11" d="M177.05,160.8a10.87,10.87,0,0,0-17-13.52Z"/><circle class="cls-12" cx="90.87" cy="104.88" r="10.91"/><path class="cls-11" d="M100.11,109.57A10.35,10.35,0,0,0,82.8,98.32Z"/><circle class="cls-13" cx="127.6" cy="129.16" r="6.28"/><path class="cls-11" d="M132.45,131.56a5.4,5.4,0,0,0-9-5.87Z"/><circle class="cls-10" cx="90.87" cy="188.82" r="10.91"/><path class="cls-11" d="M99.86,194.89a10.87,10.87,0,0,0-17-13.52Z"/><circle class="cls-13" cx="46.8" cy="77.51" r="6.28"/><path class="cls-11" d="M51.65,79.91a5.39,5.39,0,0,0-9-5.87Z"/><circle class="cls-10" cx="10.91" cy="143.77" r="10.91"/><path class="cls-11" d="M20.48,149a11,11,0,0,0-3.56-14.41A11,11,0,0,0,2.3,137.18Z"/></svg>