<?xml version="1.0" encoding="utf-8"?>
<!-- Generator: Adobe Illustrator 24.3.0, SVG Export Plug-In . SVG Version: 6.00 Build 0)  -->
<svg version="1.1" id="Layer_1" xmlns="http://www.w3.org/2000/svg" xmlns:xlink="http://www.w3.org/1999/xlink" x="0px" y="0px"
	 viewBox="0 0 566.9 566.9" style="enable-background:new 0 0 566.9 566.9;" xml:space="preserve">
<style type="text/css">
	.st0{fill:#33D4FF;}
	.st1{fill:url(#SVGID_1_);}
	.st2{fill:url(#SVGID_2_);}
	.st3{fill:url(#SVGID_3_);}
	.st4{fill:url(#SVGID_4_);}
	.st5{fill:url(#SVGID_5_);}
	.st6{fill:url(#SVGID_6_);}
	.st7{fill:url(#SVGID_7_);}
	.st8{fill:url(#SVGID_8_);}
	.st9{fill:url(#SVGID_9_);}
	.st10{fill:url(#SVGID_10_);}
	.st11{fill:url(#SVGID_11_);}
	.st12{fill:url(#SVGID_12_);}
	.st13{fill:url(#SVGID_13_);}
	.st14{fill:url(#SVGID_14_);}
	.st15{fill:url(#SVGID_15_);}
	.st16{fill:url(#SVGID_16_);}
	.st17{fill:url(#SVGID_17_);}
	.st18{fill:url(#SVGID_18_);}
	.st19{fill:url(#SVGID_19_);}
	.st20{fill:url(#SVGID_20_);}
	.st21{fill:url(#SVGID_21_);}
	.st22{fill:url(#SVGID_22_);}
	.st23{fill:url(#SVGID_23_);}
	.st24{fill:url(#SVGID_24_);}
	.st25{fill:url(#SVGID_25_);}
</style>
<g>
	
		<linearGradient id="SVGID_1_" gradientUnits="userSpaceOnUse" x1="212.0925" y1="221.3854" x2="265.0228" y2="341.7827" gradientTransform="matrix(0.7071 -0.7071 0.7071 0.7071 -72.0801 258.305)">
		<stop  offset="0.1704" style="stop-color:#06A3F7"/>
		<stop  offset="1" style="stop-color:#0064FF"/>
	</linearGradient>
	<path class="st1" d="M335,287c3.5,7,5.4,14.9,5.4,23.3l-61.1,0c-27.1,0-49.5-20.6-52.2-47c-0.2-1.8-0.3-3.6-0.3-5.4H288
		C308.6,257.8,326.4,269.7,335,287z"/>
	
		<linearGradient id="SVGID_2_" gradientUnits="userSpaceOnUse" x1="176.1777" y1="222.1763" x2="254.4756" y2="292.304" gradientTransform="matrix(0.7071 -0.7071 0.7071 0.7071 -72.0801 258.305)">
		<stop  offset="0.1704" style="stop-color:#06A3F7"/>
		<stop  offset="1" style="stop-color:#0064FF"/>
	</linearGradient>
	<path class="st2" d="M335,287c3.5,7,5.4,14.9,5.4,23.3l-61.1,0c-27.1,0-49.5-20.6-52.2-47c6.6,14,20.9,23.7,37.4,23.7L335,287z"/>
	
		<linearGradient id="SVGID_3_" gradientUnits="userSpaceOnUse" x1="135.0922" y1="295.9487" x2="204.867" y2="299.4966" gradientTransform="matrix(0.7071 -0.7071 0.7071 0.7071 -72.0801 258.305)">
		<stop  offset="0" style="stop-color:#0CEDED"/>
		<stop  offset="1" style="stop-color:#0064FF"/>
	</linearGradient>
	<path class="st3" d="M278.9,310.3v61.5l-61.5,0v0C217.4,337.8,244.9,310.3,278.9,310.3L278.9,310.3z"/>
	
		<linearGradient id="SVGID_4_" gradientUnits="userSpaceOnUse" x1="179.6308" y1="387.26" x2="224.9074" y2="303.5153" gradientTransform="matrix(0.7071 -0.7071 0.7071 0.7071 -72.0801 258.305)">
		<stop  offset="0" style="stop-color:#0CEDED"/>
		<stop  offset="1" style="stop-color:#0064FF"/>
	</linearGradient>
	<path class="st4" d="M340.4,310.3c0,16.2-6.2,30.9-16.4,41.9c-0.5,0.6-1,1.1-1.6,1.6c-11.1,11.1-26.5,18-43.5,18l0-41.8v-19.7
		L340.4,310.3z"/>
	
		<linearGradient id="SVGID_5_" gradientUnits="userSpaceOnUse" x1="120.1956" y1="285.1053" x2="208.2573" y2="310.4104" gradientTransform="matrix(0.7071 -0.7071 0.7071 0.7071 -72.0801 258.305)">
		<stop  offset="0" style="stop-color:#0CEDED"/>
		<stop  offset="1" style="stop-color:#0064FF"/>
	</linearGradient>
	<path class="st5" d="M324,352.1c-6.8-12.2-19.9-23.6-45.1-22.2c-14.5,0.8-32.9,5.8-56.5,17.3c3.1-7.1,7.5-13.6,13-19
		c11.1-11.1,26.5-18,43.5-18l61.5,0C340.4,326.4,334.2,341.2,324,352.1z"/>
	<g>
		
			<linearGradient id="SVGID_6_" gradientUnits="userSpaceOnUse" x1="320.4038" y1="115.3849" x2="390.1786" y2="118.9328" gradientTransform="matrix(-0.6955 0.7185 -0.7185 -0.6955 639.9598 45.1722)">
			<stop  offset="0" style="stop-color:#0CEDED"/>
			<stop  offset="1" style="stop-color:#0064FF"/>
		</linearGradient>
		<path class="st6" d="M289,257.7l-1-61.5l61.5-1v0C350.1,229.1,323,257.1,289,257.7L289,257.7z"/>
		
			<linearGradient id="SVGID_7_" gradientUnits="userSpaceOnUse" x1="364.9424" y1="206.6962" x2="410.219" y2="122.9515" gradientTransform="matrix(-0.6955 0.7185 -0.7185 -0.6955 639.9598 45.1722)">
			<stop  offset="0" style="stop-color:#0CEDED"/>
			<stop  offset="1" style="stop-color:#0064FF"/>
		</linearGradient>
		<path class="st7" d="M227.5,258.7c-0.3-16.2,5.7-31,15.8-42.1c0.5-0.6,1-1.1,1.5-1.7c10.9-11.3,26.2-18.4,43.2-18.7l0.7,41.8
			l0.3,19.7L227.5,258.7z"/>
		
			<linearGradient id="SVGID_8_" gradientUnits="userSpaceOnUse" x1="306.0074" y1="104.5415" x2="394.0692" y2="129.8466" gradientTransform="matrix(-0.6955 0.7185 -0.7185 -0.6955 639.9598 45.1722)">
			<stop  offset="0" style="stop-color:#0CEDED"/>
			<stop  offset="1" style="stop-color:#0064FF"/>
		</linearGradient>
		<path class="st8" d="M242.9,216.9c7,12.1,20.3,23.2,45.4,21.4c14.4-1,32.8-6.3,56.2-18.2c-3,7.2-7.3,13.7-12.6,19.2
			c-11,11.3-26.2,18.4-43.2,18.7l-61.5,1C226.9,242.8,232.9,228,242.9,216.9z"/>
	</g>
</g>
</svg>
