<?xml version="1.0" encoding="utf-8"?>
<svg viewBox="86.8994 244.4 393.2379 78.1" xmlns="http://www.w3.org/2000/svg">
  <defs>
    <style type="text/css">
	.st0{fill:#33D4FF;}
	.st1{fill:url(#SVGID_1_);}
	.st2{fill:url(#SVGID_2_);}
	.st3{fill:url(#SVGID_3_);}
	.st4{fill:url(#SVGID_4_);}
	.st5{fill:url(#SVGID_5_);}
	.st6{fill:url(#SVGID_6_);}
	.st7{fill:url(#SVGID_7_);}
	.st8{fill:url(#SVGID_8_);}
	.st9{fill:url(#SVGID_9_);}
	.st10{fill:url(#SVGID_10_);}
	.st11{fill:url(#SVGID_11_);}
	.st12{fill:url(#SVGID_12_);}
	.st13{fill:url(#SVGID_13_);}
	.st14{fill:url(#SVGID_14_);}
	.st15{fill:url(#SVGID_15_);}
	.st16{fill:url(#SVGID_16_);}
	.st17{fill:url(#SVGID_17_);}
	.st18{fill:url(#SVGID_18_);}
	.st19{fill:url(#SVGID_19_);}
	.st20{fill:url(#SVGID_20_);}
	.st21{fill:url(#SVGID_21_);}
	.st22{fill:url(#SVGID_22_);}
	.st23{fill:url(#SVGID_23_);}
	.st24{fill:url(#SVGID_24_);}
	.st25{fill:url(#SVGID_25_);}
</style>
  </defs>
  <linearGradient id="SVGID_1_" gradientUnits="userSpaceOnUse" x1="84.4058" y1="291.6541" x2="477.5973" y2="300.8456">
    <stop offset="0" style="stop-color:#19A0FE"/>
    <stop offset="1" style="stop-color:#0064FF"/>
  </linearGradient>
  <linearGradient id="SVGID_2_" gradientUnits="userSpaceOnUse" x1="84.647" y1="281.3354" x2="477.8385" y2="290.5268">
    <stop offset="0" style="stop-color:#19A0FE"/>
    <stop offset="1" style="stop-color:#0064FF"/>
  </linearGradient>
  <linearGradient id="SVGID_3_" gradientUnits="userSpaceOnUse" x1="84.6769" y1="280.0563" x2="477.8684" y2="289.2478">
    <stop offset="0" style="stop-color:#19A0FE"/>
    <stop offset="1" style="stop-color:#0064FF"/>
  </linearGradient>
  <linearGradient id="SVGID_4_" gradientUnits="userSpaceOnUse" x1="84.4802" y1="288.4709" x2="477.6717" y2="297.6624">
    <stop offset="0" style="stop-color:#19A0FE"/>
    <stop offset="1" style="stop-color:#0064FF"/>
  </linearGradient>
  <linearGradient id="SVGID_5_" gradientUnits="userSpaceOnUse" x1="84.5048" y1="287.4209" x2="477.6963" y2="296.6124">
    <stop offset="0" style="stop-color:#19A0FE"/>
    <stop offset="1" style="stop-color:#0064FF"/>
  </linearGradient>
  <linearGradient id="SVGID_6_" gradientUnits="userSpaceOnUse" x1="84.5319" y1="286.261" x2="477.7234" y2="295.4525">
    <stop offset="0" style="stop-color:#19A0FE"/>
    <stop offset="1" style="stop-color:#0064FF"/>
  </linearGradient>
  <linearGradient id="SVGID_7_" gradientUnits="userSpaceOnUse" x1="84.5663" y1="284.7897" x2="477.7578" y2="293.9812">
    <stop offset="0" style="stop-color:#19A0FE"/>
    <stop offset="1" style="stop-color:#0064FF"/>
  </linearGradient>
  <path class="st1" d="M192.2,306.9c-4.2,6.8-11.9,11.7-20.5,11.7c-13.5,0-23.8-11.3-23.8-24.8c0-13.4,10.3-25,23.8-25&#10;&#9;&#9;c8,0,15.2,4.6,19.6,10.6l-7.4,4.6c-2.8-3.6-7.2-6.1-12.2-6.1c-8.6,0-14.7,7.2-14.7,15.8c0,8.7,6.1,15.6,14.7,15.6&#10;&#9;&#9;c4.9,0,9.5-2.2,12.3-5.9L192.2,306.9z"/>
  <path class="st2" d="M209.7,270.2v47.6h-9.7v-47.6H209.7z M209.4,259.5h-9.2v-9.1h9.2V259.5z"/>
  <path class="st3" d="M220.2,248.9l37.3,36.8l8.1,8.4l-0.1-10.3v-33.3h11.1v68.3L237.4,281l-6.7-7.1l0.1,8.4v35.3h-10.7V248.9z"/>
  <path class="st4" d="M334,301.8c-4.6,11.3-14.1,16.9-23.9,16.9c-13.7,0-24.7-11.3-24.7-24.9c0-13.7,11-25,24.7-25&#10;&#9;&#9;c13.6,0,24.6,11.3,24.6,25c0,0.9,0,1.9-0.1,2.7h-8.9h-4.9h-26c1.3,7.4,7.4,13.2,15.2,13.2c6,0,11.2-2.9,13.7-7.9&#10;&#9;&#9;C325.7,301.8,331.4,301.8,334,301.8z M295.1,289.3h1.6h25.5h2.9c-0.3-0.8-0.8-1.5-1.1-2.3c-2.5-5.3-7.7-9.3-14-9.3&#10;&#9;&#9;c-6.6,0-11.9,4.1-14.3,9.7C295.5,288.1,295.2,288.7,295.1,289.3z"/>
  <path class="st5" d="M367.3,296.8l12.6,21.1h-10.6l-7.9-13.6l-2.2-4.2l-2.3,4.1l-8,13.8h-10.1l12.4-21l2.5-3.9l-2.3-4.1L340,269.8&#10;&#9;&#9;h10.2L357,282l2.3,4.1l2.3-4l7.6-12.4h10.2L367.1,289l-2.3,3.6L367.3,296.8z"/>
  <path class="st6" d="M386.6,294.9v-25.1h9.9v6.9v18.1c0,8.5,5.5,14.7,14.8,14.7c6.9,0,14.5-6.2,14.6-14.6v-0.6v-17.6v-7h9.7v47.9&#10;&#9;&#9;h-9.7v-6.1c-3.8,4.2-8.7,7-14.5,7C396.7,318.6,386.6,308,386.6,294.9z"/>
  <path class="st7" d="M480.1,305.2c-0.5,9.5-9.9,13.7-18,13.3c-8.6-0.6-13.7-4.2-16.6-10.9l8.6-3c1.4,3.1,4.2,4.9,8.4,5&#10;&#9;&#9;c4.6,0.3,8.5-1.7,8.6-5c0.3-4.1-1.7-6.7-7.9-7c-0.3,0-0.4,0-0.7-0.2c-9-0.7-15.4-7.4-15-15.6c0.4-7.8,8.5-13.4,17.3-12.9&#10;&#9;&#9;c6.7,0.5,11.3,3.2,14.2,7.5l-6.7,4.6c-1.6-2.5-4.5-4.2-7.8-4.3c-5-0.3-7.8,2-8.1,5.7c-0.2,3.3,2.3,6.9,7.1,7.2&#10;&#9;&#9;C474,290,480.7,296,480.1,305.2z"/>
  <g>
    <linearGradient id="SVGID_8_" gradientUnits="userSpaceOnUse" x1="6.9095" y1="637.5738" x2="30.3404" y2="690.8707" gradientTransform="matrix(0.7071 -0.7071 0.7071 0.7071 -361.3445 -170.7109)">
      <stop offset="0.1704" style="stop-color:#06A3F7"/>
      <stop offset="1" style="stop-color:#0064FF"/>
    </linearGradient>
    <path class="st8" d="M138.9,285c1.5,3.1,2.4,6.6,2.4,10.3l-27,0c-12,0-21.9-9.1-23.1-20.8c-0.1-0.8-0.1-1.6-0.1-2.4h27&#10;&#9;&#9;&#9;C127.2,272.1,135.1,277.4,138.9,285z"/>
    <linearGradient id="SVGID_9_" gradientUnits="userSpaceOnUse" x1="-8.9891" y1="637.924" x2="25.6714" y2="668.9677" gradientTransform="matrix(0.7071 -0.7071 0.7071 0.7071 -361.3445 -170.7109)">
      <stop offset="0.1704" style="stop-color:#06A3F7"/>
      <stop offset="1" style="stop-color:#0064FF"/>
    </linearGradient>
    <path class="st9" d="M138.9,285c1.5,3.1,2.4,6.6,2.4,10.3l-27,0c-12,0-21.9-9.1-23.1-20.8c2.9,6.2,9.2,10.5,16.6,10.5L138.9,285z"/>
    <linearGradient id="SVGID_10_" gradientUnits="userSpaceOnUse" x1="-27.1766" y1="670.5811" x2="3.711" y2="672.1517" gradientTransform="matrix(0.7071 -0.7071 0.7071 0.7071 -361.3445 -170.7109)">
      <stop offset="0" style="stop-color:#0CEDED"/>
      <stop offset="1" style="stop-color:#0064FF"/>
    </linearGradient>
    <path class="st10" d="M114.1,295.3v27.2l-27.2,0v0C86.8,307.5,99,295.3,114.1,295.3L114.1,295.3z"/>
    <linearGradient id="SVGID_11_" gradientUnits="userSpaceOnUse" x1="-7.4605" y1="711.0023" x2="12.5823" y2="673.9307" gradientTransform="matrix(0.7071 -0.7071 0.7071 0.7071 -361.3445 -170.7109)">
      <stop offset="0" style="stop-color:#0CEDED"/>
      <stop offset="1" style="stop-color:#0064FF"/>
    </linearGradient>
    <path class="st11" d="M141.3,295.3c0,7.2-2.8,13.7-7.3,18.5c-0.2,0.2-0.5,0.5-0.7,0.7c-4.9,4.9-11.7,8-19.3,8l0-18.5v-8.7&#10;&#9;&#9;&#9;L141.3,295.3z"/>
    <linearGradient id="SVGID_12_" gradientUnits="userSpaceOnUse" x1="-33.771" y1="665.781" x2="5.2118" y2="676.9829" gradientTransform="matrix(0.7071 -0.7071 0.7071 0.7071 -361.3445 -170.7109)">
      <stop offset="0" style="stop-color:#0CEDED"/>
      <stop offset="1" style="stop-color:#0064FF"/>
    </linearGradient>
    <path class="st12" d="M134,313.9c-3-5.4-8.8-10.4-20-9.8c-6.4,0.4-14.6,2.6-25,7.7c1.4-3.2,3.3-6,5.7-8.4c4.9-4.9,11.7-8,19.3-8&#10;&#9;&#9;&#9;l27.2,0C141.3,302.5,138.5,309,134,313.9z"/>
    <g>
      <linearGradient id="SVGID_13_" gradientUnits="userSpaceOnUse" x1="-574.8552" y1="-294.035" x2="-543.9676" y2="-292.4645" gradientTransform="matrix(-0.6955 0.7185 -0.7185 -0.6955 -472.549 452.8911)">
        <stop offset="0" style="stop-color:#0CEDED"/>
        <stop offset="1" style="stop-color:#0064FF"/>
      </linearGradient>
      <path class="st13" d="M118.5,272l-0.4-27.2l27.2-0.4v0C145.6,259.4,133.6,271.8,118.5,272L118.5,272z"/>
      <linearGradient id="SVGID_14_" gradientUnits="userSpaceOnUse" x1="-555.139" y1="-253.6138" x2="-535.0962" y2="-290.6855" gradientTransform="matrix(-0.6955 0.7185 -0.7185 -0.6955 -472.549 452.8911)">
        <stop offset="0" style="stop-color:#0CEDED"/>
        <stop offset="1" style="stop-color:#0064FF"/>
      </linearGradient>
      <path class="st14" d="M91.3,272.5c-0.1-7.2,2.5-13.7,7-18.6c0.2-0.2,0.5-0.5,0.7-0.7c4.8-5,11.6-8.2,19.1-8.3l0.3,18.5l0.1,8.7&#10;&#9;&#9;&#9;&#9;L91.3,272.5z"/>
      <linearGradient id="SVGID_15_" gradientUnits="userSpaceOnUse" x1="-581.2281" y1="-298.8351" x2="-542.2454" y2="-287.6332" gradientTransform="matrix(-0.6955 0.7185 -0.7185 -0.6955 -472.549 452.8911)">
        <stop offset="0" style="stop-color:#0CEDED"/>
        <stop offset="1" style="stop-color:#0064FF"/>
      </linearGradient>
      <path class="st15" d="M98.1,254c3.1,5.3,9,10.3,20.1,9.5c6.4-0.5,14.5-2.8,24.9-8.1c-1.3,3.2-3.2,6.1-5.6,8.5&#10;&#9;&#9;&#9;&#9;c-4.8,5-11.6,8.2-19.1,8.3l-27.2,0.4C91,265.5,93.7,258.9,98.1,254z"/>
    </g>
  </g>
</svg>