<svg id="Layer_1" data-name="Layer 1" xmlns="http://www.w3.org/2000/svg" viewBox="0 0 477.39 119.77"><defs><style>.cls-1{fill:#081b21;}.cls-2,.cls-3,.cls-4,.cls-5,.cls-6,.cls-7,.cls-8{fill:#219da7;}.cls-12,.cls-13,.cls-2,.cls-3,.cls-5,.cls-7,.cls-8,.cls-9{stroke:#fff;}.cls-2,.cls-5,.cls-7{stroke-linecap:round;}.cls-2,.cls-3,.cls-5,.cls-6,.cls-7{stroke-linejoin:round;}.cls-2,.cls-3,.cls-6{stroke-width:2.26px;}.cls-4{stroke:#1dbfcc;}.cls-12,.cls-13,.cls-4,.cls-8,.cls-9{stroke-miterlimit:10;}.cls-4,.cls-8{stroke-width:1.93px;}.cls-5{stroke-width:1.88px;}.cls-6{stroke:#219da7;}.cls-7{stroke-width:1.55px;}.cls-9{fill:none;stroke-width:1.7px;}.cls-10,.cls-12,.cls-13{fill:#1dbfcc;}.cls-11{fill:#0f96ac;}.cls-12{stroke-width:0.6px;}.cls-13{stroke-width:1.02px;}</style></defs><path class="cls-1" d="M151.5,61.84a22.34,22.34,0,0,0-4.88-3q-2.64-1.17-5.36-2.08a47.53,47.53,0,0,1-4.95-1.92,12.48,12.48,0,0,1-3.59-2.35A4.66,4.66,0,0,1,131.36,49a4.46,4.46,0,0,1,2-3.89,9.77,9.77,0,0,1,5.59-1.4A12.3,12.3,0,0,1,144.54,45a16.53,16.53,0,0,1,4.8,3.78l6.81-6.8A20.15,20.15,0,0,0,149,36.64a23.22,23.22,0,0,0-9.86-2,22.48,22.48,0,0,0-9.22,1.81,15,15,0,0,0-6.42,5.21,14.2,14.2,0,0,0-2.34,8.24,15.22,15.22,0,0,0,1.32,6.8,12.43,12.43,0,0,0,3.59,4.39A23,23,0,0,0,131,63.92q2.64,1.13,5.33,2a45.86,45.86,0,0,1,4.91,1.89,10.74,10.74,0,0,1,3.59,2.53,5.64,5.64,0,0,1,1.36,3.93,5,5,0,0,1-2.34,4.38,11.16,11.16,0,0,1-6.35,1.59,15.34,15.34,0,0,1-7.52-1.7,18,18,0,0,1-5.48-4.8l-6.8,6.8A24.61,24.61,0,0,0,126,87.19a25.08,25.08,0,0,0,10.92,2.19q9.15,0,14.36-4.27t5.22-11.67a16.19,16.19,0,0,0-1.36-7A13,13,0,0,0,151.5,61.84Z"/><path class="cls-1" d="M197.25,78.39a18.87,18.87,0,0,1-7.63,1.4,17.22,17.22,0,0,1-6.76-1.29,15.8,15.8,0,0,1-5.33-3.62,16,16,0,0,1-3.48-5.63,21.21,21.21,0,0,1-1.21-7.3,20.86,20.86,0,0,1,1.21-7.21,16.28,16.28,0,0,1,3.48-5.67,15.14,15.14,0,0,1,5.33-3.63,17.59,17.59,0,0,1,6.69-1.25,18.76,18.76,0,0,1,7.4,1.36,15.27,15.27,0,0,1,5.37,3.78l7-7a28.69,28.69,0,0,0-8.5-5.63,28.34,28.34,0,0,0-11.29-2.07,27.39,27.39,0,0,0-10.81,2.11,27.08,27.08,0,0,0-8.69,5.82,26.18,26.18,0,0,0-5.74,8.69,29.24,29.24,0,0,0,0,21.46,26.1,26.1,0,0,0,5.78,8.73,27.16,27.16,0,0,0,8.72,5.86,27.64,27.64,0,0,0,10.89,2.11A29,29,0,0,0,201,87.31a28.38,28.38,0,0,0,8.73-5.71l-7-7A16.26,16.26,0,0,1,197.25,78.39Z"/><rect class="cls-1" x="216.83" y="35.43" width="10.28" height="53.13"/><polygon class="cls-1" points="271.76 69.73 245.16 35.43 237.98 35.43 237.98 88.55 248.26 88.55 248.26 54.37 274.71 88.55 282.04 88.55 282.04 35.43 271.76 35.43 271.76 69.73"/><polygon class="cls-1" points="303.2 65.88 327.31 65.88 327.31 57.04 303.2 57.04 303.2 44.5 329.5 44.5 329.5 35.43 303.2 35.43 300.48 35.43 292.92 35.43 292.92 88.55 300.48 88.55 303.2 88.55 329.88 88.55 329.88 79.48 303.2 79.48 303.2 65.88"/><polygon class="cls-1" points="384.06 35.43 372.35 35.43 360.21 53.78 347.71 35.43 335.47 35.43 353.63 61.28 334.49 88.55 346.12 88.55 359.9 68.35 372.88 88.55 384.96 88.55 366.53 60.9 384.06 35.43"/><path class="cls-1" d="M422.6,68.38a11.86,11.86,0,0,1-1.48,6,10.46,10.46,0,0,1-3.92,4,11.37,11.37,0,0,1-5.71,1.4,12,12,0,0,1-5.82-1.4,10.51,10.51,0,0,1-4.08-4,11.82,11.82,0,0,1-1.51-6.12V35.43H389.73V68a21.28,21.28,0,0,0,2.83,11,20.72,20.72,0,0,0,7.75,7.63,22.22,22.22,0,0,0,11.18,2.79,21.85,21.85,0,0,0,11.11-2.79,20.43,20.43,0,0,0,7.59-7.6A21.48,21.48,0,0,0,433,68.07V35.43H422.6Z"/><path class="cls-1" d="M476,66.45a13,13,0,0,0-3.59-4.61,22.34,22.34,0,0,0-4.88-3q-2.64-1.17-5.36-2.08a47.53,47.53,0,0,1-4.95-1.92,12.48,12.48,0,0,1-3.59-2.35A4.66,4.66,0,0,1,452.3,49a4.46,4.46,0,0,1,2-3.89,9.77,9.77,0,0,1,5.59-1.4A12.38,12.38,0,0,1,465.49,45a16.63,16.63,0,0,1,4.79,3.78l6.8-6.8a20,20,0,0,0-7.14-5.29,23.22,23.22,0,0,0-9.86-2,22.48,22.48,0,0,0-9.22,1.81,15,15,0,0,0-6.42,5.21,14.2,14.2,0,0,0-2.34,8.24,15.22,15.22,0,0,0,1.32,6.8A12.43,12.43,0,0,0,447,61.05a23,23,0,0,0,4.91,2.87q2.64,1.13,5.33,2a45.86,45.86,0,0,1,4.91,1.89,10.74,10.74,0,0,1,3.59,2.53,5.64,5.64,0,0,1,1.36,3.93,5,5,0,0,1-2.34,4.38,11.18,11.18,0,0,1-6.35,1.59,15.34,15.34,0,0,1-7.52-1.7,18,18,0,0,1-5.48-4.8l-6.8,6.8a24.61,24.61,0,0,0,8.27,6.65,25.08,25.08,0,0,0,10.92,2.19q9.15,0,14.36-4.27t5.22-11.67A16.19,16.19,0,0,0,476,66.45Z"/><path class="cls-1" d="M101.84,32.54,54.38,4.42l-47.46,26V84.55l47.46,28.12L92.08,92c6-3.3,8.66-9.48,8.66-16.34Z"/><line class="cls-2" x1="101.67" y1="34.93" x2="56.2" y2="60.25"/><line class="cls-3" x1="54.04" y1="12.79" x2="54.04" y2="60.95"/><line class="cls-2" x1="4.37" y1="88.46" x2="50.58" y2="64.51"/><line class="cls-2" x1="53.94" y1="61.16" x2="95.2" y2="88.45"/><line class="cls-4" x1="100.74" y1="37.32" x2="79.43" y2="72.14"/><line class="cls-5" x1="54.15" y1="64.51" x2="53.85" y2="105.68"/><line class="cls-3" x1="49.65" y1="10.95" x2="30.42" y2="42.56"/><line class="cls-6" x1="25.88" y1="50.25" x2="8.19" y2="80.11"/><line class="cls-2" x1="53.73" y1="61.93" x2="28.46" y2="46.01"/><line class="cls-7" x1="26.48" y1="44.79" x2="7.11" y2="32.1"/><line class="cls-8" x1="73.15" y1="81.36" x2="56.2" y2="106.97"/><path class="cls-9" d="M97.73,34.73a6.53,6.53,0,0,1-.22-4.92L60.71,8A6.53,6.53,0,0,1,48,7.86L11.64,27.79A6.53,6.53,0,0,1,7,38.51V79.23a6.52,6.52,0,0,1,5.8,8.65l35.88,21.25a6.54,6.54,0,0,1,11.66.2L93.33,92c.5-3.07,1.42-4.4,1.87-4.9s2-1.72,4.94-2.33l1.79-46.5A6.53,6.53,0,0,1,97.73,34.73Z"/><circle class="cls-10" cx="54.29" cy="6.54" r="6.54"/><circle class="cls-10" cx="6.54" cy="32.1" r="6.54"/><circle class="cls-10" cx="103.7" cy="31.53" r="6.54"/><path class="cls-11" d="M60,9.7A6.52,6.52,0,0,0,49.1,2.61Z"/><path class="cls-11" d="M12.28,35.23a6.56,6.56,0,0,0-2.14-8.63,6.57,6.57,0,0,0-8.76,1.55Z"/><path class="cls-11" d="M109.41,34.63a6.51,6.51,0,0,0-10.89-7.09Z"/><circle class="cls-10" cx="100.74" cy="91.81" r="6.54"/><path class="cls-11" d="M106.13,95.45A6.52,6.52,0,0,0,96,87.35Z"/><circle class="cls-12" cx="54.47" cy="61.93" r="6.54"/><path class="cls-11" d="M60,64.75A6.2,6.2,0,0,0,49.63,58Z"/><circle class="cls-13" cx="76.48" cy="76.49" r="3.76"/><path class="cls-11" d="M79.39,77.93A3.23,3.23,0,0,0,74,74.41Z"/><circle class="cls-10" cx="54.47" cy="112.25" r="6.54"/><path class="cls-11" d="M59.86,115.89a6.52,6.52,0,0,0-10.16-8.11Z"/><circle class="cls-13" cx="28.06" cy="45.53" r="3.76"/><path class="cls-11" d="M31,47a3.23,3.23,0,0,0-5.41-3.52Z"/><circle class="cls-10" cx="6.54" cy="85.25" r="6.54"/><path class="cls-11" d="M12.28,88.38a6.56,6.56,0,0,0-2.14-8.63,6.58,6.58,0,0,0-8.76,1.54Z"/></svg>